<svg width="1039" height="84" viewBox="0 0 1039 84" fill="none" xmlns="http://www.w3.org/2000/svg">
<path d="M25.9082 67.8545C11.5527 67.8545 2.56348 58.25 2.56348 42.3223C2.56348 26.4287 11.6211 16.8242 25.9082 16.8242C37.7686 16.8242 46.792 24.3438 47.5781 35.3838H37.5293C36.5723 29.334 31.9238 25.3691 25.9082 25.3691C18.1152 25.3691 13.0908 31.8975 13.0908 42.2881C13.0908 52.8154 18.0469 59.3096 25.9424 59.3096C32.0605 59.3096 36.4697 55.7207 37.5635 49.876H47.6123C46.4502 60.8818 38.0078 67.8545 25.9082 67.8545ZM83.2549 16.8242C97.8496 16.8242 107.044 26.6338 107.044 42.3564C107.044 58.0449 97.8496 67.8545 83.2549 67.8545C68.626 67.8545 59.4658 58.0449 59.4658 42.3564C59.4658 26.6338 68.626 16.8242 83.2549 16.8242ZM83.2549 25.4375C75.1885 25.4375 69.9932 32 69.9932 42.3564C69.9932 52.6787 75.1543 59.207 83.2549 59.207C91.3213 59.207 96.4824 52.6787 96.4824 42.3564C96.4824 32 91.3213 25.4375 83.2549 25.4375ZM152.599 58.4551V67H120.709V17.6787H131.031V58.4551H152.599ZM185.917 16.8242C200.512 16.8242 209.706 26.6338 209.706 42.3564C209.706 58.0449 200.512 67.8545 185.917 67.8545C171.288 67.8545 162.128 58.0449 162.128 42.3564C162.128 26.6338 171.288 16.8242 185.917 16.8242ZM185.917 25.4375C177.851 25.4375 172.655 32 172.655 42.3564C172.655 52.6787 177.816 59.207 185.917 59.207C193.983 59.207 199.145 52.6787 199.145 42.3564C199.145 32 193.983 25.4375 185.917 25.4375ZM233.693 25.7451V41.4678H242.58C247.775 41.4678 250.817 38.4941 250.817 33.6064C250.817 28.8213 247.604 25.7451 242.478 25.7451H233.693ZM233.693 48.9531V67H223.371V17.6787H243.571C254.919 17.6787 261.413 23.6602 261.413 33.4014C261.413 39.7246 258.132 45.1934 252.458 47.415L262.849 67H251.159L241.965 48.9531H233.693Z" fill="#7F8E53"/>
<path d="M354.908 67.8545C340.553 67.8545 331.563 58.25 331.563 42.3223C331.563 26.4287 340.621 16.8242 354.908 16.8242C366.769 16.8242 375.792 24.3438 376.578 35.3838H366.529C365.572 29.334 360.924 25.3691 354.908 25.3691C347.115 25.3691 342.091 31.8975 342.091 42.2881C342.091 52.8154 347.047 59.3096 354.942 59.3096C361.061 59.3096 365.47 55.7207 366.563 49.876H376.612C375.45 60.8818 367.008 67.8545 354.908 67.8545ZM420.595 67L416.835 55.0371H399.506L395.746 67H385.15L402.274 17.6787H414.408L431.566 67H420.595ZM408.051 27.1123L401.728 47.3125H414.613L408.29 27.1123H408.051ZM443.625 17.6787H463.688C473.806 17.6787 480.778 24.4121 480.778 34.5635C480.778 44.6807 473.566 51.4482 463.176 51.4482H453.947V67H443.625V17.6787ZM453.947 25.8477V43.3818H460.92C466.833 43.3818 470.285 40.2373 470.285 34.5977C470.285 28.9922 466.867 25.8477 460.954 25.8477H453.947ZM516.011 67H505.688V26.1895H491.436V17.6787H530.298V26.1895H516.011V67ZM553.328 17.6787V48.543C553.328 54.8662 557.054 59.002 563.685 59.002C570.281 59.002 574.007 54.8662 574.007 48.543V17.6787H584.329V49.5684C584.329 60.4375 576.297 67.8545 563.685 67.8545C551.038 67.8545 543.006 60.4375 543.006 49.5684V17.6787H553.328ZM609.889 25.7451V41.4678H618.775C623.971 41.4678 627.013 38.4941 627.013 33.6064C627.013 28.8213 623.8 25.7451 618.673 25.7451H609.889ZM609.889 48.9531V67H599.566V17.6787H619.767C631.114 17.6787 637.608 23.6602 637.608 33.4014C637.608 39.7246 634.327 45.1934 628.653 47.415L639.044 67H627.354L618.16 48.9531H609.889ZM684.086 58.4551V67H651.41V17.6787H684.086V26.1895H661.732V38.084H682.821V46.0137H661.732V58.4551H684.086Z" fill="#7F8E53"/>
<path d="M770.908 67.8545C756.553 67.8545 747.563 58.25 747.563 42.3223C747.563 26.4287 756.621 16.8242 770.908 16.8242C782.769 16.8242 791.792 24.3438 792.578 35.3838H782.529C781.572 29.334 776.924 25.3691 770.908 25.3691C763.115 25.3691 758.091 31.8975 758.091 42.2881C758.091 52.8154 763.047 59.3096 770.942 59.3096C777.061 59.3096 781.47 55.7207 782.563 49.876H792.612C791.45 60.8818 783.008 67.8545 770.908 67.8545ZM816.326 25.7451V41.4678H825.213C830.408 41.4678 833.45 38.4941 833.45 33.6064C833.45 28.8213 830.237 25.7451 825.11 25.7451H816.326ZM816.326 48.9531V67H806.004V17.6787H826.204C837.552 17.6787 844.046 23.6602 844.046 33.4014C844.046 39.7246 840.765 45.1934 835.091 47.415L845.481 67H833.792L824.598 48.9531H816.326ZM890.523 58.4551V67H857.848V17.6787H890.523V26.1895H868.17V38.084H889.259V46.0137H868.17V58.4551H890.523ZM937.274 67L933.515 55.0371H916.186L912.426 67H901.83L918.954 17.6787H931.088L948.246 67H937.274ZM924.73 27.1123L918.407 47.3125H931.293L924.97 27.1123H924.73ZM975.72 67H965.397V26.1895H951.145V17.6787H990.007V26.1895H975.72V67ZM1035.39 58.4551V67H1002.71V17.6787H1035.39V26.1895H1013.04V38.084H1034.13V46.0137H1013.04V58.4551H1035.39Z" fill="#7F8E53"/>
</svg>
